<?xml version="1.0" encoding="UTF-8" standalone="no"?>
<svg
   xmlns:dc="http://purl.org/dc/elements/1.1/"
   xmlns:cc="http://creativecommons.org/ns#"
   xmlns:rdf="http://www.w3.org/1999/02/22-rdf-syntax-ns#"
   xmlns:svg="http://www.w3.org/2000/svg"
   xmlns="http://www.w3.org/2000/svg"
   id="svg8"
   version="1.1"
   viewBox="0 0 52.387499 28.310417"
   height="107"
   width="198">
  <defs
     id="defs2" />
  <metadata
     id="metadata5">
    <rdf:RDF>
      <cc:Work
         rdf:about="">
        <dc:format>image/svg+xml</dc:format>
        <dc:type
           rdf:resource="http://purl.org/dc/dcmitype/StillImage" />
        <dc:title></dc:title>
      </cc:Work>
    </rdf:RDF>
  </metadata>
  <g
     transform="translate(0,-268.68956)"
     id="layer1">
    <g
       id="text817"
       style="font-style:normal;font-variant:normal;font-weight:normal;font-stretch:normal;font-size:10.93611145px;line-height:125%;font-family:'BundesSerif Web';-inkscape-font-specification:'BundesSerif Web, Normal';font-variant-ligatures:normal;font-variant-caps:normal;font-variant-numeric:normal;font-feature-settings:normal;text-align:end;letter-spacing:0px;word-spacing:0px;writing-mode:lr-tb;text-anchor:end;fill:#004f80;fill-opacity:1;stroke:none;stroke-width:0.26458332px;stroke-linecap:butt;stroke-linejoin:miter;stroke-opacity:1"
       aria-label="DigitalPakt
Schule">
      <g
         transform="translate(1.4999999e-7,2.4054133)"
         id="g4576">
        <path
           d="m 7.5276221,275.93316 q 0,3.63184 -4.1842973,3.63184 H 0.9391443 q -0.0102306,-0.0818 -0.0102306,-0.13299 0,-0.28646 0.3478389,-0.37854 l 0.4092223,-0.1023 v -5.85188 l -0.6036028,-0.14323 q -0.14322784,-0.0307 -0.14322784,-0.11253 0,-0.0307 0.11253614,-0.33761 h 2.2916444 q 4.1842973,0 4.1842973,3.42724 z m -1.4322778,0.0307 q 0,-2.76225 -2.7827111,-2.76225 H 3.0568693 v 5.66772 h 0.2557639 q 2.7827111,0 2.7827111,-2.90547 z"
           style="font-style:normal;font-variant:normal;font-weight:bold;font-stretch:normal;font-size:10.23055553px;font-family:'BundesSerif Web';-inkscape-font-specification:'BundesSerif Web, Bold';font-variant-ligatures:normal;font-variant-caps:normal;font-variant-numeric:normal;font-feature-settings:normal;text-align:end;writing-mode:lr-tb;text-anchor:end;fill:#004f80;fill-opacity:1;stroke-width:0.26458332px"
           id="path4524" />
        <path
           d="m 10.203552,278.99209 0.572911,0.133 q 0.143228,0.0307 0.143228,0.133 0,0.20461 -0.102306,0.30691 H 8.2802072 q -0.010231,-0.0818 -0.010231,-0.11253 0,-0.22508 0.3171473,-0.33761 l 0.3273777,-0.12277 v -3.75461 l -0.6956777,-0.12277 q -0.010231,-0.0818 -0.010231,-0.12277 0,-0.28645 0.3785306,-0.31714 l 1.6164279,-0.15346 z m 0.112536,-6.07695 q 0,0.32738 -0.225072,0.53199 -0.2250727,0.19438 -0.5524505,0.19438 -0.3273778,0 -0.5422194,-0.19438 -0.2148417,-0.20461 -0.2148417,-0.53199 0,-0.32738 0.2148417,-0.53199 0.2250722,-0.20461 0.5422194,-0.20461 0.3273778,0 0.5524505,0.20461 0.225072,0.20461 0.225072,0.53199 z"
           style="font-style:normal;font-variant:normal;font-weight:bold;font-stretch:normal;font-size:10.23055553px;font-family:'BundesSerif Web';-inkscape-font-specification:'BundesSerif Web, Bold';font-variant-ligatures:normal;font-variant-caps:normal;font-variant-numeric:normal;font-feature-settings:normal;text-align:end;writing-mode:lr-tb;text-anchor:end;fill:#004f80;fill-opacity:1;stroke-width:0.26458332px"
           id="path4526" />
        <path
           d="m 16.155018,275.19656 h -0.808214 q 0.306917,0.39899 0.306917,0.92075 0,0.79798 -0.603603,1.25835 -0.593372,0.45015 -1.514122,0.45015 -0.235303,0 -0.450145,-0.0307 -0.265994,0.15345 -0.265994,0.42968 0,0.33761 0.491066,0.33761 h 1.196975 q 1.524353,0 1.524353,1.2379 0,0.79798 -0.74683,1.35043 -0.797984,0.58314 -2.097264,0.58314 -1.923345,0 -1.923345,-1.17651 0,-0.43992 0.306917,-0.7366 0.255764,-0.25577 0.624064,-0.34784 v -0.0205 q -0.450145,-0.23531 -0.450145,-0.7673 0,-0.57291 0.777523,-1.02305 v -0.0205 q -0.971903,-0.40922 -0.971903,-1.52435 0,-0.78776 0.603603,-1.2379 0.55245,-0.41945 1.432277,-0.41945 0.439914,0 0.838906,0.12276 h 1.8415 z m -2.547408,-0.133 q -0.797984,0 -0.797984,1.06398 0,1.09467 0.777522,1.09467 0.808214,0 0.808214,-1.09467 0,-1.06398 -0.787752,-1.06398 z m -0.511528,4.56283 q -0.153459,0 -0.35807,-0.0205 -0.347839,0.25577 -0.347839,0.66499 0,0.81845 0.992364,0.81845 0.654756,0 1.084439,-0.266 0.429684,-0.25576 0.429684,-0.63429 0,-0.56268 -0.644525,-0.56268 z"
           style="font-style:normal;font-variant:normal;font-weight:bold;font-stretch:normal;font-size:10.23055553px;font-family:'BundesSerif Web';-inkscape-font-specification:'BundesSerif Web, Bold';font-variant-ligatures:normal;font-variant-caps:normal;font-variant-numeric:normal;font-feature-settings:normal;text-align:end;writing-mode:lr-tb;text-anchor:end;fill:#004f80;fill-opacity:1;stroke-width:0.26458332px"
           id="path4528" />
        <path
           d="m 18.535859,278.99209 0.572912,0.133 q 0.143227,0.0307 0.143227,0.133 0,0.20461 -0.102305,0.30691 h -2.537178 q -0.01023,-0.0818 -0.01023,-0.11253 0,-0.22508 0.317148,-0.33761 l 0.327377,-0.12277 v -3.75461 l -0.695677,-0.12277 q -0.01023,-0.0818 -0.01023,-0.12277 0,-0.28645 0.378531,-0.31714 l 1.616427,-0.15346 z m 0.112537,-6.07695 q 0,0.32738 -0.225073,0.53199 -0.225072,0.19438 -0.55245,0.19438 -0.327377,0 -0.542219,-0.19438 -0.214842,-0.20461 -0.214842,-0.53199 0,-0.32738 0.214842,-0.53199 0.225072,-0.20461 0.542219,-0.20461 0.327378,0 0.55245,0.20461 0.225073,0.20461 0.225073,0.53199 z"
           style="font-style:normal;font-variant:normal;font-weight:bold;font-stretch:normal;font-size:10.23055553px;font-family:'BundesSerif Web';-inkscape-font-specification:'BundesSerif Web, Bold';font-variant-ligatures:normal;font-variant-caps:normal;font-variant-numeric:normal;font-feature-settings:normal;text-align:end;writing-mode:lr-tb;text-anchor:end;fill:#004f80;fill-opacity:1;stroke-width:0.26458332px"
           id="path4530" />
        <path
           d="m 22.90159,275.19656 h -1.360664 v 2.77248 q 0,0.95144 0.634294,0.95144 0.480836,0 0.757061,-0.24554 0.112536,0.19438 0.112536,0.38877 0,0.15345 -0.306916,0.35806 -0.409223,0.266 -1.063978,0.266 -1.422047,0 -1.422047,-1.51412 v -2.97709 h -0.746831 q -0.01023,-0.10231 -0.01023,-0.133 0,-0.28646 0.317147,-0.35807 l 0.491066,-0.12277 0.265995,-1.39135 h 0.971903 v 1.39135 h 1.4732 z"
           style="font-style:normal;font-variant:normal;font-weight:bold;font-stretch:normal;font-size:10.23055553px;font-family:'BundesSerif Web';-inkscape-font-specification:'BundesSerif Web, Bold';font-variant-ligatures:normal;font-variant-caps:normal;font-variant-numeric:normal;font-feature-settings:normal;text-align:end;writing-mode:lr-tb;text-anchor:end;fill:#004f80;fill-opacity:1;stroke-width:0.26458332px"
           id="path4532" />
        <path
           d="m 27.232471,278.43964 q 0,0.46038 0.296686,0.46038 0.265994,0 0.419453,-0.21485 0.153458,0.17392 0.153458,0.32738 0,0.18415 -0.255764,0.38876 -0.327378,0.27623 -0.828675,0.27623 -0.777522,0 -0.951442,-0.7366 h -0.02046 q -0.347839,0.7366 -1.278819,0.7366 -0.593372,0 -0.982134,-0.37853 -0.37853,-0.38876 -0.37853,-0.99237 0,-0.77752 0.716139,-1.16628 0.613833,-0.32738 1.575505,-0.32738 h 0.265995 v -0.41945 q 0,-0.72637 -0.204611,-1.00259 -0.194381,-0.28646 -0.654756,-0.28646 -0.173919,0 -0.419453,0.0921 -0.132997,0.31714 -0.214841,0.90028 -0.163689,0.0205 -0.276225,0.0205 -0.583142,0 -0.583142,-0.54222 0,-0.48084 0.531989,-0.79799 0.542219,-0.31714 1.360664,-0.31714 1.728964,0 1.728964,1.83126 z m -1.4732,-1.09467 q -1.074209,0.0819 -1.074209,0.82868 0,0.29668 0.153459,0.48083 0.163689,0.18415 0.429683,0.18415 0.419453,0 0.695678,-0.32737 v -1.17652 z"
           style="font-style:normal;font-variant:normal;font-weight:bold;font-stretch:normal;font-size:10.23055553px;font-family:'BundesSerif Web';-inkscape-font-specification:'BundesSerif Web, Bold';font-variant-ligatures:normal;font-variant-caps:normal;font-variant-numeric:normal;font-feature-settings:normal;text-align:end;writing-mode:lr-tb;text-anchor:end;fill:#004f80;fill-opacity:1;stroke-width:0.26458332px"
           id="path4534" />
        <path
           d="m 30.213399,278.99209 0.56268,0.133 q 0.143228,0.0307 0.143228,0.133 0,0.20461 -0.102306,0.30691 h -2.537177 q -0.01023,-0.0818 -0.01023,-0.11253 0,-0.23531 0.317147,-0.33761 l 0.337609,-0.12277 v -6.13833 l -0.705909,-0.11254 q -0.01023,-0.0921 -0.01023,-0.133 0,-0.28645 0.37853,-0.31714 l 1.626659,-0.15346 z"
           style="font-style:normal;font-variant:normal;font-weight:bold;font-stretch:normal;font-size:10.23055553px;font-family:'BundesSerif Web';-inkscape-font-specification:'BundesSerif Web, Bold';font-variant-ligatures:normal;font-variant-caps:normal;font-variant-numeric:normal;font-feature-settings:normal;text-align:end;writing-mode:lr-tb;text-anchor:end;fill:#004f80;fill-opacity:1;stroke-width:0.26458332px"
           id="path4536" />
        <path
           d="m 36.872212,274.53157 q 0,1.03329 -0.726369,1.61643 -0.787753,0.61383 -2.271183,0.61383 h -0.265995 v 2.17911 l 0.757061,0.14323 q 0.143228,0.0307 0.143228,0.12276 0,0.0716 -0.112536,0.35807 H 31.49094 q -0.01023,-0.0818 -0.01023,-0.13299 0,-0.28646 0.347839,-0.37854 l 0.409222,-0.1023 v -5.85188 l -0.603603,-0.14323 q -0.143228,-0.0307 -0.143228,-0.11253 0,-0.0307 0.112536,-0.33761 h 2.220031 q 3.048705,0 3.048705,2.02565 z m -1.432277,0.0512 q 0,-1.37089 -1.626659,-1.37089 h -0.204611 v 2.85432 h 0.204611 q 1.626659,0 1.626659,-1.48343 z"
           style="font-style:normal;font-variant:normal;font-weight:bold;font-stretch:normal;font-size:10.23055553px;font-family:'BundesSerif Web';-inkscape-font-specification:'BundesSerif Web, Bold';font-variant-ligatures:normal;font-variant-caps:normal;font-variant-numeric:normal;font-feature-settings:normal;text-align:end;writing-mode:lr-tb;text-anchor:end;fill:#004f80;fill-opacity:1;stroke-width:0.26458332px"
           id="path4538" />
        <path
           d="m 41.199577,278.43964 q 0,0.46038 0.296686,0.46038 0.265994,0 0.419452,-0.21485 0.153459,0.17392 0.153459,0.32738 0,0.18415 -0.255764,0.38876 -0.327378,0.27623 -0.828675,0.27623 -0.777522,0 -0.951442,-0.7366 h -0.02046 q -0.347839,0.7366 -1.278819,0.7366 -0.593373,0 -0.982134,-0.37853 -0.37853,-0.38876 -0.37853,-0.99237 0,-0.77752 0.716139,-1.16628 0.613833,-0.32738 1.575505,-0.32738 h 0.265995 v -0.41945 q 0,-0.72637 -0.204611,-1.00259 -0.194381,-0.28646 -0.654756,-0.28646 -0.173919,0 -0.419453,0.0921 -0.132997,0.31714 -0.214841,0.90028 -0.163689,0.0205 -0.276225,0.0205 -0.583142,0 -0.583142,-0.54222 0,-0.48084 0.531989,-0.79799 0.542219,-0.31714 1.360664,-0.31714 1.728964,0 1.728964,1.83126 z m -1.4732,-1.09467 q -1.074209,0.0819 -1.074209,0.82868 0,0.29668 0.153459,0.48083 0.163688,0.18415 0.429683,0.18415 0.419453,0 0.695678,-0.32737 v -1.17652 z"
           style="font-style:normal;font-variant:normal;font-weight:bold;font-stretch:normal;font-size:10.23055553px;font-family:'BundesSerif Web';-inkscape-font-specification:'BundesSerif Web, Bold';font-variant-ligatures:normal;font-variant-caps:normal;font-variant-numeric:normal;font-feature-settings:normal;text-align:end;writing-mode:lr-tb;text-anchor:end;fill:#004f80;fill-opacity:1;stroke-width:0.26458332px"
           id="path4540" />
        <path
           d="m 46.86091,275.15563 -1.248128,1.51413 1.595967,2.32233 0.501297,0.12277 q 0.143228,0.0409 0.143228,0.133 0,0.21484 -0.102306,0.31714 h -1.759655 l -1.46297,-2.28141 h -0.3683 v 1.7085 l 0.54222,0.133 q 0.143228,0.0307 0.143228,0.133 0,0.20461 -0.102306,0.30691 h -2.516717 q -0.01023,-0.0818 -0.01023,-0.11253 0,-0.23531 0.317147,-0.33761 l 0.337608,-0.12277 v -6.13833 l -0.705908,-0.11254 q -0.01023,-0.0921 -0.01023,-0.133 0,-0.28645 0.37853,-0.31714 l 1.626658,-0.15346 v 4.47075 h 0.685448 l 1.135591,-1.51412 -0.654755,-0.14323 q -0.01023,-0.0716 -0.01023,-0.12276 0,-0.24554 0.286456,-0.24554 h 1.872191 q 0.122767,0 0.122767,0.10231 0,0.12276 -0.07161,0.26599 z"
           style="font-style:normal;font-variant:normal;font-weight:bold;font-stretch:normal;font-size:10.23055553px;font-family:'BundesSerif Web';-inkscape-font-specification:'BundesSerif Web, Bold';font-variant-ligatures:normal;font-variant-caps:normal;font-variant-numeric:normal;font-feature-settings:normal;text-align:end;writing-mode:lr-tb;text-anchor:end;fill:#004f80;fill-opacity:1;stroke-width:0.26458332px"
           id="path4542" />
        <path
           d="m 51.315358,275.19656 h -1.360664 v 2.77248 q 0,0.95144 0.634295,0.95144 0.480836,0 0.757061,-0.24554 0.112536,0.19438 0.112536,0.38877 0,0.15345 -0.306917,0.35806 -0.409222,0.266 -1.063977,0.266 -1.422048,0 -1.422048,-1.51412 v -2.97709 h -0.74683 q -0.01023,-0.10231 -0.01023,-0.133 0,-0.28646 0.317148,-0.35807 l 0.491066,-0.12277 0.265995,-1.39135 h 0.971902 v 1.39135 h 1.4732 z"
           style="font-style:normal;font-variant:normal;font-weight:bold;font-stretch:normal;font-size:10.23055553px;font-family:'BundesSerif Web';-inkscape-font-specification:'BundesSerif Web, Bold';font-variant-ligatures:normal;font-variant-caps:normal;font-variant-numeric:normal;font-feature-settings:normal;text-align:end;writing-mode:lr-tb;text-anchor:end;fill:#004f80;fill-opacity:1;stroke-width:0.26458332px"
           id="path4544" />
        <path
           d="m 25.267086,282.44929 q -0.460375,-0.3376 -1.043517,-0.3376 -0.470606,0 -0.767292,0.24553 -0.296686,0.24553 -0.296686,0.72637 0,0.37853 0.265995,0.65475 0.143227,0.15346 0.501297,0.35807 l 0.92075,0.53199 q 0.787753,0.46038 1.11513,0.83891 0.429684,0.5013 0.429684,1.2072 0,0.92075 -0.634295,1.48343 -0.664986,0.58315 -1.810808,0.58315 -1.186744,0 -1.913114,-0.45015 -0.05115,-0.79798 -0.05115,-1.1049 0,-0.61383 0.439914,-0.61383 0.132997,0 0.235303,0.0512 l 0.245533,1.1049 q 0.388761,0.33761 1.084439,0.33761 1.186745,0 1.186745,-0.95144 0,-0.46038 -0.337609,-0.76729 -0.143227,-0.12277 -0.941211,-0.60361 l -0.613833,-0.3683 q -0.634295,-0.38876 -0.91052,-0.74683 -0.388761,-0.50129 -0.388761,-1.24812 0,-0.87983 0.654756,-1.41182 0.664986,-0.53199 1.698272,-0.53199 1.033286,0 1.728964,0.39899 0.05115,0.68545 0.05115,1.03329 0,0.6036 -0.419453,0.6036 -0.153458,0 -0.235303,-0.0307 z"
           style="font-style:normal;font-variant:normal;font-weight:bold;font-stretch:normal;font-size:10.23055553px;font-family:'BundesSerif Web';-inkscape-font-specification:'BundesSerif Web, Bold';font-variant-ligatures:normal;font-variant-caps:normal;font-variant-numeric:normal;font-feature-settings:normal;text-align:end;writing-mode:lr-tb;text-anchor:end;fill:#004f80;fill-opacity:1;stroke-width:0.26458332px"
           id="path4546" />
        <path
           d="m 30.611911,285.10924 q -0.347839,-0.92075 -0.971902,-0.92075 -1.156053,0 -1.156053,1.79035 0,1.9438 1.350433,1.9438 0.593372,0 1.156053,-0.51153 0.18415,0.18415 0.18415,0.40923 0,0.26599 -0.429683,0.56268 -0.531989,0.35807 -1.319742,0.35807 -1.084439,0 -1.677811,-0.64453 -0.583142,-0.64452 -0.583142,-1.90288 0,-1.25836 0.767292,-1.99496 0.726369,-0.68545 1.8415,-0.68545 0.797983,0 1.186744,0.34784 0.286456,0.24553 0.286456,0.57291 0,0.57291 -0.634295,0.67522 z"
           style="font-style:normal;font-variant:normal;font-weight:bold;font-stretch:normal;font-size:10.23055553px;font-family:'BundesSerif Web';-inkscape-font-specification:'BundesSerif Web, Bold';font-variant-ligatures:normal;font-variant-caps:normal;font-variant-numeric:normal;font-feature-settings:normal;text-align:end;writing-mode:lr-tb;text-anchor:end;fill:#004f80;fill-opacity:1;stroke-width:0.26458332px"
           id="path4548" />
        <path
           d="m 33.609784,284.24987 h 0.02046 q 0.603603,-0.7366 1.575505,-0.7366 1.555045,0 1.555045,1.76989 v 2.76225 l 0.56268,0.133 q 0.143228,0.0307 0.143228,0.13299 0,0.20461 -0.102305,0.30692 h -2.496256 q -0.01023,-0.0818 -0.01023,-0.11254 0,-0.22507 0.317147,-0.34784 l 0.296686,-0.11253 V 285.498 q 0,-1.06398 -0.859367,-1.06398 -0.583141,0 -1.002594,0.38876 v 3.22263 l 0.531989,0.12277 q 0.143227,0.0409 0.143227,0.13299 0,0.21484 -0.102305,0.31715 h -2.506486 q -0.01023,-0.0818 -0.01023,-0.11254 0,-0.2353 0.317147,-0.3376 l 0.337609,-0.12277 v -6.13833 l -0.705909,-0.11254 q -0.01023,-0.0921 -0.01023,-0.133 0,-0.28645 0.37853,-0.31715 l 1.626659,-0.15345 z"
           style="font-style:normal;font-variant:normal;font-weight:bold;font-stretch:normal;font-size:10.23055553px;font-family:'BundesSerif Web';-inkscape-font-specification:'BundesSerif Web, Bold';font-variant-ligatures:normal;font-variant-caps:normal;font-variant-numeric:normal;font-feature-settings:normal;text-align:end;writing-mode:lr-tb;text-anchor:end;fill:#004f80;fill-opacity:1;stroke-width:0.26458332px"
           id="path4550" />
        <path
           d="m 42.68173,288.02495 0.74683,0.1023 q 0.01023,0.0409 0.01023,0.0818 0,0.31714 -0.378531,0.34784 l -1.606197,0.12276 v -0.68544 h -0.02046 q -0.501297,0.74683 -1.483431,0.74683 -1.585736,0 -1.585736,-1.8722 v -2.5781 l -0.695677,-0.12276 q -0.01023,-0.0819 -0.01023,-0.12277 0,-0.28645 0.378531,-0.31715 l 1.616427,-0.15345 v 3.24308 q 0,1.07421 0.828675,1.07421 0.562681,0 0.91052,-0.47061 v -3.13055 l -0.695678,-0.12276 q -0.01023,-0.0819 -0.01023,-0.12277 0,-0.28645 0.378531,-0.31715 l 1.616428,-0.15345 z"
           style="font-style:normal;font-variant:normal;font-weight:bold;font-stretch:normal;font-size:10.23055553px;font-family:'BundesSerif Web';-inkscape-font-specification:'BundesSerif Web, Bold';font-variant-ligatures:normal;font-variant-caps:normal;font-variant-numeric:normal;font-feature-settings:normal;text-align:end;writing-mode:lr-tb;text-anchor:end;fill:#004f80;fill-opacity:1;stroke-width:0.26458332px"
           id="path4552" />
        <path
           d="m 45.719084,288.04541 0.562681,0.133 q 0.143228,0.0307 0.143228,0.13299 0,0.20461 -0.102306,0.30692 h -2.537178 q -0.01023,-0.0818 -0.01023,-0.11254 0,-0.2353 0.317147,-0.3376 l 0.337608,-0.12277 v -6.13833 l -0.705908,-0.11254 q -0.01023,-0.0921 -0.01023,-0.133 0,-0.28645 0.37853,-0.31715 l 1.626658,-0.15345 z"
           style="font-style:normal;font-variant:normal;font-weight:bold;font-stretch:normal;font-size:10.23055553px;font-family:'BundesSerif Web';-inkscape-font-specification:'BundesSerif Web, Bold';font-variant-ligatures:normal;font-variant-caps:normal;font-variant-numeric:normal;font-feature-settings:normal;text-align:end;writing-mode:lr-tb;text-anchor:end;fill:#004f80;fill-opacity:1;stroke-width:0.26458332px"
           id="path4554" />
        <path
           d="m 48.295907,286.19368 q 0.01023,0.8696 0.419452,1.31974 0.35807,0.39899 0.971903,0.39899 0.757061,0 1.28905,-0.4706 0.18415,0.15345 0.18415,0.40922 0,0.25576 -0.501297,0.54222 -0.593372,0.34784 -1.391356,0.34784 -2.291644,0 -2.291644,-2.51672 0,-1.27882 0.695678,-2.02565 0.644525,-0.68545 1.636889,-0.68545 0.890058,0 1.370894,0.48084 0.450144,0.46037 0.450144,1.26859 0,0.51153 -0.122766,0.93098 z m 1.503891,-0.6036 q 0.05115,-0.23531 0.05115,-0.45015 0,-0.98213 -0.664986,-0.98213 -0.808214,0 -0.879828,1.43228 z"
           style="font-style:normal;font-variant:normal;font-weight:bold;font-stretch:normal;font-size:10.23055553px;font-family:'BundesSerif Web';-inkscape-font-specification:'BundesSerif Web, Bold';font-variant-ligatures:normal;font-variant-caps:normal;font-variant-numeric:normal;font-feature-settings:normal;text-align:end;writing-mode:lr-tb;text-anchor:end;fill:#004f80;fill-opacity:1;stroke-width:0.26458332px"
           id="path4556" />
      </g>
    </g>
  </g>
</svg>
